<?xml version="1.0" encoding="utf-8"?>
<!-- Generator: Adobe Illustrator 15.1.0, SVG Export Plug-In . SVG Version: 6.00 Build 0)  -->
<!DOCTYPE svg PUBLIC "-//W3C//DTD SVG 1.1//EN" "http://www.w3.org/Graphics/SVG/1.1/DTD/svg11.dtd">
<svg version="1.1"
	 id="Layer_1" xmlns:dc="http://purl.org/dc/elements/1.1/" xmlns:cc="http://creativecommons.org/ns#" xmlns:rdf="http://www.w3.org/1999/02/22-rdf-syntax-ns#" xmlns:svg="http://www.w3.org/2000/svg" xmlns:sodipodi="http://sodipodi.sourceforge.net/DTD/sodipodi-0.dtd" xmlns:inkscape="http://www.inkscape.org/namespaces/inkscape" inkscape:version="0.91 r13725" sodipodi:docname="AlbertaLogo.svg"
	 xmlns="http://www.w3.org/2000/svg" xmlns:xlink="http://www.w3.org/1999/xlink" x="0px" y="0px" width="319.92px"
	 height="135.09px" viewBox="7.904 -0.001 319.92 135.09" enable-background="new 7.904 -0.001 319.92 135.09" xml:space="preserve"
	>
<sodipodi:namedview  pagecolor="#ffffff" inkscape:cy="44.632" guidetolerance="10" inkscape:cx="358.57901" gridtolerance="10" objecttolerance="10" inkscape:zoom="0.40576831" borderopacity="1" showgrid="false" bordercolor="#666666" id="namedview41" inkscape:current-layer="Layer_1" inkscape:window-y="-4" inkscape:window-x="-4" inkscape:window-height="987" inkscape:window-width="1680" inkscape:pageshadow="2" inkscape:pageopacity="0" inkscape:window-maximized="1">
	</sodipodi:namedview>
<g>
	<path id="path3" fill="#FFFFFF" d="M298.952,45.859V74.93h0.989c6.328-3.757,10.679-10.876,10.679-16.811
		c0-4.943-2.769-4.747-2.571-5.536c0.988-2.177,7.119-0.99,7.515,6.327c0.396,6.326-2.771,12.263-8.702,16.218h20.963V45.858
		L298.952,45.859L298.952,45.859z"/>
	<g id="g5">
		<path id="path7" fill="#FFFFFF" d="M124.916,85.215c-3.164-0.396-7.12-4.747-8.504-11.669c-2.175-12.459-0.989-25.117,2.769-43.51
			c0.593-3.361,3.165-9.295-4.351-10.682c-2.571-0.396-1.187,0.989-1.78,4.153c-2.769,13.845-14.041,23.732-25.314,30.457
			c-1.187-15.624-0.593-33.226,2.176-44.104c2.571-9.098,5.537-7.516,1.78-9.295c-3.758-1.777-8.109,0.596-11.668,7.518
			c-3.559,6.923-18.59,42.915-43.707,67.637c-12.855,12.46-24.128,6.329-26.699,4.154c-1.78-1.583-2.571,0.986-0.396,3.359
			c10.284,10.877,25.314,4.746,30.654-0.593c15.426-15.03,32.83-47.662,40.147-61.31c-0.593,7.91-0.989,20.566,0.593,35.994
			c-7.911,3.758-14.635,5.934-17.799,6.922c-3.362,0.986-5.538,2.568-5.538,4.151c0,1.78,2.175,3.361,5.538,4.944
			c5.933,2.77,23.732,11.271,28.083,13.843c3.758,2.177,5.538,0.596,6.526-1.777c1.583-3.164-2.571-4.746-6.329-5.935
			c-1.583-5.34-2.769-12.262-3.362-19.775c9.098-5.538,17.799-13.055,23.139-22.149c-1.187,7.909-4.747,34.017,3.758,45.289
			c1.78,2.57,5.933,4.943,9.69,4.745c1.78-0.396,2.769-1.581,2.571-1.778C127.091,84.819,126.103,85.215,124.916,85.215z
			 M66.971,69.59c4.153-1.581,9.097-3.758,14.438-6.525c0.593,6.328,1.582,10.682,2.571,13.846
			C79.826,75.524,74.287,73.349,66.971,69.59z"/>
		<path id="path9" fill="#FFFFFF" d="M299.546,74.536c-2.769,1.582-5.538,2.568-9.098,2.568c-11.866,0-15.03-9.295-15.624-13.844
			c-0.396-3.164,0.396-7.516-4.945-6.922c-3.757,0.396-6.921,7.515-11.668,13.447c-4.153,5.341-5.933,4.747-4.944,0.396
			c1.187-5.538,5.933-18.789,11.273-19.775c2.571-0.396,3.362,3.757,4.351,1.187c1.186-2.769,0-8.504-5.34-8.504
			c-3.757,0-8.504,4.153-12.262,8.703c-3.362,4.149-19.975,28.873-26.896,23.532c-3.165-2.569-3.165-12.459-0.989-24.325
			c8.504-3.163,15.426-2.175,19.183-0.396c1.78,0.988,2.176,0.988,1.187-1.187c-1.187-3.165-7.911-8.108-18.393-5.537
			c-0.396,0-0.593,0-0.593,0.396c0.989-3.758,1.78-7.908,2.769-11.668c0.989-3.361,3.758-9.689-3.757-10.68
			c-2.571-0.396-1.187,0.987-2.176,4.151c-1.582,5.935-3.164,13.845-4.747,21.357c-6.328,3.362-11.866,9.295-16.019,17.206
			c0.593-3.36,1.78-7.516,1.78-10.284c0-2.77-1.78-3.36-2.571-3.758c-1.582-0.396-3.757,0.396-5.537,3.164
			c-4.747,6.526-10.284,16.613-19.184,20.964c-6.329,3.164-9.098,0-9.295-4.746c1.187-0.396,2.571-0.594,3.362-1.187
			c11.668-4.945,15.426-12.855,12.459-17.604c-2.769-4.351-10.679-3.165-16.81,3.361c-3.164,3.164-5.339,8.702-5.538,13.845
			c-2.571,0.595-5.537,0.988-9.098,1.582c5.538-8.896,5.143-20.766-2.768-22.743c-9.098-2.176-13.844,6.525-15.624,14.041
			c0.593-7.516,1.78-16.217,3.362-24.721c0.593-3.362,3.164-9.689-4.351-10.68c-2.571-0.396-2.176,0.594-1.78,4.151
			c0.396,4.353-4.747,31.051-2.176,42.521c-3.164,0.989-4.746,3.361-0.396,6.329c2.769,1.779,9.295,2.569,15.624-0.989
			c2.176-1.187,4.351-2.77,5.934-4.746c3.758-0.594,7.91-1.187,11.668-1.778c0.593,4.943,4.153,9.099,11.668,8.505
			c10.877-0.988,20.568-14.438,24.326-20.965c-0.593,6.923-5.34,22.148,2.571,21.559c3.164-0.396,1.582-0.988,1.78-3.362
			c0.594-9.097,8.504-16.811,16.02-21.557c-1.187,11.271-0.989,21.356,4.351,24.325c9.295,5.934,22.545-9.689,30.061-19.187
			c-3.758,8.504-5.933,19.187-0.396,20.568c6.527,1.779,11.668-9.101,17.799-17.205c0.593,5.933,4.747,16.217,20.568,16.217
			c7.119,0,13.449-2.176,17.798-5.341h-7.119v-0.396h0.2V74.536L299.546,74.536z M172.776,54.758
			c3.758-3.362,5.538-3.362,6.329-2.57c0.989,2.175-3.362,9.295-12.262,13.447C167.832,62.076,169.612,57.724,172.776,54.758z
			 M135.597,77.106c-0.989,0.396-1.78,0-2.571,0c0.396-0.395,0.593-0.986,0.593-1.582c0-0.396,0-0.986,0-1.187
			c1.582,0,4.153-0.396,7.12-0.594C139.353,75.524,137.375,76.711,135.597,77.106z M143.309,70.778
			c-2.769,0.396-5.933,0.595-9.295,0.988c1.186-9.295,5.933-22.147,12.262-19.974C149.638,52.583,147.66,63.262,143.309,70.778z"/>
	</g>
</g>
<g id="g11" transform="translate(-128,0)">
	<path id="path21" inkscape:connector-curvature="0" fill="#FFFFFF" d="M193.126,134.011c-1.817,0.721-3.651,1.078-5.5,1.078
		c-2.348,0-4.442-0.435-6.293-1.298c-1.848-0.865-3.416-2.031-4.707-3.498s-2.271-3.153-2.947-5.062
		c-0.676-1.905-1.014-3.888-1.014-5.938c0-2.288,0.314-4.466,0.947-6.534c0.631-2.066,1.567-3.879,2.813-5.434
		c1.246-1.556,2.803-2.794,4.664-3.72c1.863-0.926,4.041-1.388,6.533-1.388c1.701,0,3.311,0.198,4.818,0.596
		c1.512,0.396,2.857,1.021,4.049,1.868c1.188,0.854,2.186,1.933,2.992,3.234c0.807,1.306,1.354,2.882,1.646,4.729h-4.18
		c-0.205-1.201-0.588-2.235-1.146-3.104c-0.56-0.865-1.247-1.576-2.067-2.134c-0.82-0.56-1.752-0.979-2.793-1.254
		c-1.041-0.279-2.15-0.418-3.322-0.418c-1.906,0-3.543,0.381-4.906,1.144c-1.361,0.765-2.479,1.77-3.344,3.016
		s-1.504,2.67-1.914,4.27c-0.41,1.599-0.615,3.232-0.615,4.906c0,1.643,0.234,3.219,0.703,4.729
		c0.469,1.513,1.158,2.848,2.068,4.004c0.908,1.159,2.029,2.083,3.365,2.772c1.336,0.688,2.883,1.032,4.643,1.032
		c1.643,0,3.094-0.266,4.355-0.791c1.261-0.527,2.323-1.255,3.188-2.181c0.865-0.924,1.52-2.009,1.959-3.256
		c0.439-1.246,0.629-2.589,0.57-4.024h-10.031v-3.521h13.771v16.546h-2.643l-1.1-3.916
		C196.47,132.114,194.944,133.292,193.126,134.011L193.126,134.011z"/>
	<path id="path23" inkscape:connector-curvature="0" fill="#FFFFFF" d="M207.118,118.347c0.469-1.45,1.172-2.713,2.111-3.782
		c0.938-1.069,2.098-1.914,3.477-2.528c1.379-0.616,2.963-0.926,4.752-0.926c1.818,0,3.41,0.31,4.773,0.926
		c1.361,0.614,2.516,1.459,3.453,2.528s1.643,2.332,2.109,3.782c0.468,1.452,0.705,3.016,0.705,4.688
		c0,1.672-0.234,3.227-0.705,4.663c-0.469,1.438-1.172,2.689-2.109,3.763c-0.938,1.071-2.092,1.907-3.453,2.508
		c-1.363,0.603-2.955,0.902-4.773,0.902c-1.789,0-3.373-0.303-4.752-0.902c-1.379-0.599-2.537-1.437-3.477-2.508
		c-0.939-1.07-1.646-2.324-2.111-3.763c-0.471-1.438-0.705-2.991-0.705-4.663C206.413,121.362,206.647,119.799,207.118,118.347z
		 M210.923,126.707c0.367,1.07,0.873,1.965,1.521,2.684c0.645,0.722,1.398,1.271,2.266,1.65c0.867,0.38,1.783,0.57,2.75,0.57
		c0.97,0,1.886-0.189,2.75-0.57c0.865-0.381,1.621-0.932,2.268-1.65c0.646-0.718,1.15-1.61,1.52-2.684
		c0.367-1.07,0.551-2.295,0.551-3.674c0-1.38-0.184-2.604-0.551-3.676c-0.367-1.069-0.873-1.974-1.52-2.706
		c-0.646-0.731-1.398-1.29-2.268-1.672c-0.864-0.383-1.78-0.57-2.75-0.57c-0.967,0-1.885,0.188-2.75,0.57
		c-0.864,0.382-1.621,0.938-2.266,1.672c-0.646,0.732-1.152,1.637-1.521,2.706c-0.367,1.069-0.549,2.296-0.549,3.676
		C210.374,124.412,210.556,125.637,210.923,126.707L210.923,126.707z"/>
	<path id="path25" inkscape:connector-curvature="0" fill="#FFFFFF" d="M239.81,134.385l-8.447-22.748h4.18l6.381,18.966h0.088
		l6.203-18.966h3.916l-8.313,22.748H239.81L239.81,134.385z"/>
	<path id="path27" inkscape:connector-curvature="0" fill="#FFFFFF" d="M272.325,132.933c-1.701,1.291-3.844,1.938-6.424,1.938
		c-1.82,0-3.396-0.294-4.73-0.882c-1.336-0.586-2.457-1.406-3.365-2.464s-1.592-2.315-2.047-3.782
		c-0.455-1.468-0.711-3.065-0.77-4.798c0-1.729,0.264-3.313,0.791-4.752s1.27-2.686,2.223-3.738c0.953-1.058,2.082-1.877,3.39-2.466
		c1.306-0.586,2.733-0.88,4.288-0.88c2.023,0,3.703,0.418,5.039,1.254c1.334,0.838,2.404,1.898,3.211,3.188
		c0.809,1.291,1.363,2.699,1.674,4.226c0.309,1.524,0.434,2.979,0.375,4.354h-17.027c-0.029,0.997,0.088,1.943,0.354,2.838
		c0.266,0.896,0.688,1.688,1.273,2.376c0.588,0.689,1.336,1.239,2.244,1.65c0.91,0.411,1.979,0.614,3.213,0.614
		c1.584,0,2.881-0.365,3.896-1.102c1.012-0.73,1.68-1.848,2.002-3.344h3.693C275.126,129.721,274.026,131.645,272.325,132.933
		L272.325,132.933z M271.423,118.325c-0.338-0.792-0.793-1.478-1.361-2.048c-0.572-0.57-1.246-1.025-2.023-1.362
		s-1.637-0.506-2.574-0.506c-0.969,0-1.842,0.169-2.615,0.506c-0.777,0.337-1.445,0.799-2.006,1.386
		c-0.557,0.587-0.994,1.271-1.316,2.046c-0.322,0.777-0.515,1.606-0.572,2.486h13.068
		C271.958,119.953,271.759,119.117,271.423,118.325L271.423,118.325z"/>
	<path id="path29" inkscape:connector-curvature="0" fill="#FFFFFF" d="M283.897,111.637v4.796h0.088
		c0.908-1.848,2.021-3.212,3.344-4.092s2.992-1.29,5.018-1.23v3.96c-1.494,0-2.771,0.206-3.826,0.616
		c-1.059,0.409-1.906,1.012-2.555,1.804c-0.645,0.793-1.113,1.755-1.408,2.884c-0.293,1.129-0.438,2.427-0.438,3.895v10.119h-3.74
		v-22.75L283.897,111.637L283.897,111.637z"/>
	<path id="path31" inkscape:connector-curvature="0" fill="#FFFFFF" d="M300.132,111.637v3.608h0.088
		c1.559-2.757,4.021-4.138,7.396-4.138c1.494,0,2.742,0.206,3.738,0.614c0.994,0.411,1.805,0.983,2.42,1.718
		c0.613,0.732,1.049,1.604,1.299,2.616c0.248,1.014,0.375,2.136,0.375,3.366v14.96h-3.74v-15.398c0-1.406-0.412-2.521-1.23-3.346
		c-0.82-0.818-1.951-1.229-3.391-1.229c-1.145,0-2.133,0.176-2.969,0.526c-0.836,0.354-1.533,0.853-2.092,1.494
		c-0.559,0.646-0.979,1.401-1.254,2.27c-0.277,0.865-0.418,1.812-0.418,2.838v12.848h-3.738v-22.748H300.132L300.132,111.637
		L300.132,111.637z"/>
	<path id="path33" inkscape:connector-curvature="0" fill="#FFFFFF" d="M325.257,111.637v3.346h0.088
		c1.701-2.581,4.15-3.872,7.352-3.872c1.405,0,2.684,0.294,3.826,0.88c1.145,0.589,1.949,1.586,2.42,2.992
		c0.764-1.23,1.768-2.187,3.016-2.858c1.246-0.675,2.617-1.014,4.113-1.014c1.145,0,2.178,0.126,3.102,0.374
		c0.924,0.25,1.717,0.64,2.377,1.166s1.172,1.21,1.539,2.046c0.367,0.837,0.553,1.843,0.553,3.016v16.676h-3.74V119.47
		c0-0.704-0.061-1.362-0.176-1.979c-0.117-0.614-0.34-1.149-0.66-1.604c-0.322-0.454-0.771-0.813-1.342-1.078
		c-0.572-0.264-1.313-0.396-2.225-0.396c-1.848,0-3.299,0.526-4.354,1.584c-1.059,1.056-1.584,2.464-1.584,4.224v14.168h-3.738
		v-14.918c0-0.73-0.066-1.406-0.199-2.022c-0.131-0.614-0.358-1.149-0.682-1.604c-0.322-0.454-0.756-0.807-1.299-1.056
		s-1.238-0.374-2.092-0.374c-1.086,0-2.018,0.22-2.795,0.658c-0.773,0.438-1.406,0.97-1.891,1.584
		c-0.484,0.616-0.836,1.256-1.06,1.914c-0.22,0.66-0.33,1.21-0.33,1.648v14.168h-3.737v-22.748h3.52L325.257,111.637
		L325.257,111.637L325.257,111.637z"/>
	<path id="path35" inkscape:connector-curvature="0" fill="#FFFFFF" d="M376.032,132.933c-1.701,1.291-3.844,1.938-6.424,1.938
		c-1.82,0-3.396-0.294-4.73-0.882c-1.336-0.586-2.457-1.406-3.365-2.464s-1.592-2.315-2.047-3.782
		c-0.455-1.468-0.711-3.065-0.77-4.798c0-1.729,0.264-3.313,0.791-4.752s1.27-2.686,2.223-3.738c0.953-1.058,2.082-1.877,3.39-2.466
		c1.306-0.586,2.733-0.88,4.288-0.88c2.023,0,3.703,0.418,5.039,1.254c1.334,0.838,2.404,1.898,3.211,3.188
		c0.809,1.291,1.363,2.699,1.674,4.226c0.309,1.524,0.434,2.979,0.375,4.354h-17.027c-0.029,0.997,0.088,1.943,0.354,2.838
		c0.264,0.896,0.688,1.688,1.273,2.376c0.588,0.689,1.336,1.239,2.244,1.65s1.979,0.614,3.213,0.614
		c1.584,0,2.881-0.365,3.896-1.102c1.012-0.73,1.68-1.848,2.002-3.344h3.693C378.833,129.721,377.733,131.645,376.032,132.933
		L376.032,132.933z M375.13,118.325c-0.338-0.792-0.793-1.478-1.362-2.048c-0.571-0.57-1.247-1.025-2.022-1.362
		c-0.777-0.337-1.637-0.506-2.574-0.506c-0.969,0-1.842,0.169-2.615,0.506c-0.777,0.337-1.445,0.799-2.006,1.386
		c-0.557,0.587-0.994,1.271-1.316,2.046c-0.322,0.777-0.516,1.606-0.572,2.486h13.068
		C375.665,119.953,375.466,119.117,375.13,118.325z"/>
	<path id="path37" inkscape:connector-curvature="0" fill="#FFFFFF" d="M387.735,111.637v3.608h0.088
		c1.555-2.757,4.018-4.138,7.393-4.138c1.494,0,2.742,0.206,3.738,0.614c0.998,0.411,1.805,0.983,2.42,1.718
		c0.617,0.732,1.049,1.604,1.299,2.616c0.248,1.014,0.375,2.136,0.375,3.366v14.96h-3.739v-15.398c0-1.406-0.409-2.521-1.231-3.346
		c-0.82-0.818-1.951-1.229-3.387-1.229c-1.146,0-2.137,0.176-2.973,0.526c-0.836,0.354-1.532,0.853-2.092,1.494
		c-0.557,0.646-0.975,1.401-1.254,2.27c-0.277,0.865-0.418,1.812-0.418,2.838v12.848h-3.738v-22.748H387.735L387.735,111.637
		L387.735,111.637z"/>
	<path id="path39" inkscape:connector-curvature="0" fill="#FFFFFF" d="M419.063,111.637v3.302h-4.531v14.123
		c0,0.438,0.037,0.792,0.109,1.058c0.07,0.264,0.211,0.469,0.418,0.614c0.205,0.146,0.488,0.24,0.855,0.286
		c0.367,0.044,0.845,0.064,1.432,0.064h1.717v3.3h-2.859c-0.969,0-1.797-0.064-2.486-0.196c-0.688-0.134-1.245-0.374-1.672-0.728
		c-0.426-0.354-0.739-0.852-0.944-1.496c-0.204-0.646-0.31-1.496-0.31-2.552v-14.476h-3.871v-3.302h3.871v-6.818h3.74v6.818
		L419.063,111.637L419.063,111.637z"/>
</g>
</svg>
