<?xml version="1.0" encoding="utf-8"?>
<!-- Generator: Adobe Illustrator 18.1.1, SVG Export Plug-In . SVG Version: 6.00 Build 0)  -->
<!DOCTYPE svg PUBLIC "-//W3C//DTD SVG 1.1//EN" "http://www.w3.org/Graphics/SVG/1.1/DTD/svg11.dtd">
<svg version="1.1" xmlns="http://www.w3.org/2000/svg" xmlns:xlink="http://www.w3.org/1999/xlink" x="0px" y="0px"
	 viewBox="0 0 455.2 87.3" enable-background="new 0 0 455.2 87.3" xml:space="preserve">
<g id="Layer_1">
</g>
<g id="Layer_3">
	<g>
		<path id="XMLID_939_" fill="#373F4C" d="M149.1,69.7h-12.6l-0.6-5.2h-0.4c-1.9,3.4-6.5,6.4-13,6.4c-11.1,0-19.8-6.6-19.8-23.8
			c0-15.6,8.6-25.2,21.3-25.2c3.8,0,7.6,0.8,10.6,2.9V4.4L149.1,0V69.7z M134.7,35.6c-1.6-1.3-4.1-2.3-7.1-2.3
			c-5.7,0-9.8,3.5-9.8,13.7c0,8.7,3.2,13,9.1,13c4.9,0,7.8-3,7.8-7.9V35.6z"/>
		<path id="XMLID_936_" fill="#373F4C" d="M170,50c0.4,5.1,3.3,9.3,12.3,9.3c4.8,0,11.1-1.5,14.3-2.9h0.5l-1.3,11.3
			c-3,1.4-8.9,3.1-15.9,3.1c-18.2,0-25.2-10.3-25.2-24.4c0-16.9,10.5-24.6,23.4-24.6c15,0,20.6,9.2,20.6,21.7c0,1.7-0.1,4.7-0.2,6.5
			H170z M169.9,41.1H185c0.1-5.8-1.8-9-7.1-9C173.2,32.1,170,35.2,169.9,41.1z"/>
		<path id="XMLID_934_" fill="#373F4C" d="M219.1,1v68.7h-14.4V5.4"/>
		<path id="XMLID_931_" fill="#373F4C" d="M240.3,50c0.4,5.1,3.3,9.3,12.3,9.3c4.8,0,11.1-1.5,14.3-2.9h0.5l-1.3,11.3
			c-3,1.4-8.9,3.1-15.9,3.1c-18.2,0-25.2-10.3-25.2-24.4c0-16.9,10.5-24.6,23.4-24.6c15,0,20.6,9.2,20.6,21.7c0,1.7-0.1,4.7-0.2,6.5
			H240.3z M240.2,41.1h15.1c0.1-5.8-1.8-9-7.1-9C243.5,32.1,240.3,35.2,240.2,41.1z"/>
		<path id="XMLID_928_" fill="#373F4C" d="M321.3,65.8c0,16.8-11.3,21.5-23.6,21.5c-5.9,0-12.7-0.9-16.9-2.2l-1.4-11h0.5
			c4.7,1.5,11,2.6,16,2.6c7.9,0,10.9-3.9,10.9-10V64l-0.4-0.1c-1.6,2.2-5.2,5.1-11.7,5.1c-11.1,0-19.8-5.3-19.8-23
			c0-12.6,7.2-24.2,21.3-24.2c5.2,0,9.1,1.9,11.9,4.8l0.9-3.7h12.2V65.8z M306.9,36.2c-1.6-1.6-4.1-2.8-7.1-2.8
			c-5.7,0-9.8,3.3-9.8,12.7c0,8.4,3.2,11.9,9.1,11.9c4.9,0,7.8-3,7.8-7.9V36.2z"/>
		<path id="XMLID_925_" fill="#373F4C" d="M332.3,24.3c4.2-1.3,11.7-2.5,17.7-2.5c12.4,0,19.2,4.1,19.2,18.1v15.9
			c0,3,0.6,3.9,2.1,3.9c1,0,2.2-0.2,3.1-0.5L374,69.5c-1.4,0.6-4.2,1.4-7.9,1.4c-4.8,0-8.3-2.3-9.4-6.4c-2.5,3.9-7.3,6.4-14.4,6.4
			c-11,0-15-6.5-15-14c0-11.3,8.3-14.4,18.7-15.1l9-0.6v-2.3c0-5.1-3-5.8-7.8-5.8c-4.7,0-10.5,1.4-15,2.6h-0.5L332.3,24.3z
			 M355,53.9v-4.3l-5.9,0.4c-4.2,0.2-7.3,1.6-7.3,5.7c0,2.8,1.3,4.9,5.7,4.9C352.3,60.7,355,58,355,53.9z"/>
		<path id="XMLID_923_" fill="#373F4C" d="M395.1,33.3V53c0,5.3,1.9,6.4,5.7,6.4c2,0,5-0.7,7.1-1.4h0.5l-1.5,11
			c-2.5,1-7.8,1.7-11,1.7c-10,0-15.2-4.7-15.2-15.5v-22H373V23h7.7v-8l14.4-4.4V23h11.3l0.8,10.4H395.1z"/>
		<path id="XMLID_920_" fill="#373F4C" d="M426.4,50.4c0.4,5.1,3.3,9.3,12.3,9.3c4.8,0,11.1-1.5,14.3-2.9h0.5l-1.3,11.3
			c-3,1.4-8.9,3.1-15.9,3.1c-18.2,0-25.2-10.3-25.2-24.4c0-16.9,10.5-24.6,23.4-24.6c15,0,20.6,9.2,20.6,21.7c0,1.7-0.1,4.7-0.2,6.5
			H426.4z M426.3,41.5h15.1c0.1-5.8-1.8-9-7.1-9C429.6,32.4,426.4,35.5,426.3,41.5z"/>
	</g>
	<g>
		<linearGradient id="XMLID_2_" gradientUnits="userSpaceOnUse" x1="-1.5557" y1="70.2291" x2="61.6715" y2="14.205">
			<stop  offset="0" style="stop-color:#E9002D"/>
			<stop  offset="1" style="stop-color:#FF7800"/>
		</linearGradient>
		<path id="XMLID_913_" fill="url(#XMLID_2_)" d="M75.5,39.2c-3-5.4-6.7-10.4-11.2-14.9c-0.8-0.8-1.7-1.6-2.5-2.4
			c-0.1-0.1-0.2-0.1-0.2-0.2C50,11.3,35.1,5.5,19.5,5.2L13,5l-3.4,5.5c-3.4,5.6-5.9,11.5-7.4,17.7c-0.2,0.6-0.3,1.1-0.4,1.7
			c-3.6,15.6-1.3,32.3,6.8,46.7l3.2,5.6l6.5,0.1h0.8c7,0,13.9-1.1,20.4-3.2c0.1,0,0.3-0.1,0.4-0.1c9.5-3.2,18.2-8.5,25.4-15.8
			c3.9-3.9,7.3-8.2,10-12.9l3.2-5.5L75.5,39.2z M49.3,47.2c-6.6,6.6-15,10.8-24,12.1c-3.7-10-3.5-21.1,0.5-31
			c8.5,1.5,16.4,5.6,22.6,11.8c1.3,1.3,2.5,2.7,3.6,4.1C51.2,45.3,50.3,46.3,49.3,47.2z"/>
		<linearGradient id="XMLID_3_" gradientUnits="userSpaceOnUse" x1="62.0237" y1="32.181" x2="5.4357" y2="13.4146">
			<stop  offset="0" style="stop-color:#E9002D"/>
			<stop  offset="1" style="stop-color:#FF7800"/>
		</linearGradient>
		<path id="XMLID_912_" fill="url(#XMLID_3_)" d="M61.7,21.9c-3.8,15.4-9.4,22-9.8,22.4c0,0,0,0,0,0c-1.1-1.4-2.3-2.8-3.6-4.1
			C42,34,34.2,29.9,25.7,28.4c0,0-16.1-3.1-23.6-0.1c1.6-6.1,4-12.1,7.4-17.7L12.9,5l6.5,0.1C35,5.5,49.8,11.3,61.4,21.7
			C61.5,21.8,61.6,21.8,61.7,21.9z"/>
		<linearGradient id="XMLID_4_" gradientUnits="userSpaceOnUse" x1="13.5876" y1="24.2143" x2="22.8265" y2="85.4219">
			<stop  offset="0" style="stop-color:#E9002D"/>
			<stop  offset="1" style="stop-color:#FF7800"/>
		</linearGradient>
		<path id="XMLID_911_" fill="url(#XMLID_4_)" d="M39.3,79.1c-6.5,2.1-13.3,3.2-20.4,3.2h-0.8l-6.5-0.1l-3.2-5.6
			c-8.1-14.4-10.3-31-6.8-46.7c0.1-0.6,0.3-1.1,0.4-1.7c7.5-3,23.6,0.1,23.6,0.1c-4,9.9-4.2,21-0.5,31l0,0
			C25.5,60.2,30.4,74.2,39.3,79.1z"/>
		<linearGradient id="XMLID_5_" gradientUnits="userSpaceOnUse" x1="29.8742" y1="72.3074" x2="75.4911" y2="31.8873">
			<stop  offset="0" style="stop-color:#E9002D"/>
			<stop  offset="1" style="stop-color:#FF7800"/>
		</linearGradient>
		<path id="XMLID_142_" fill="url(#XMLID_5_)" d="M78.4,44.8l-3.2,5.5c-2.8,4.7-6.1,9-10,12.9c-7.3,7.3-16,12.6-25.4,15.8
			c-0.1,0-0.3,0.1-0.4,0.1c-8.9-4.9-13.8-18.8-14.1-19.7l0,0c9.1-1.3,17.4-5.5,24-12.1c0.9-0.9,1.8-1.9,2.7-2.9c0,0,0,0,0,0
			c0.4-0.4,6-7,9.8-22.4c0.8,0.8,1.7,1.6,2.5,2.4c4.4,4.4,8.2,9.4,11.2,14.9L78.4,44.8z"/>
	</g>
	<g>
	</g>
	<g>
	</g>
	<g>
	</g>
	<g>
	</g>
	<g>
	</g>
</g>
</svg>
