<?xml version="1.0" encoding="utf-8"?>
<!-- Generator: Adobe Illustrator 16.0.0, SVG Export Plug-In . SVG Version: 6.00 Build 0)  -->
<!DOCTYPE svg PUBLIC "-//W3C//DTD SVG 1.1//EN" "http://www.w3.org/Graphics/SVG/1.1/DTD/svg11.dtd">
<svg version="1.1" id="_x3C_Layer_x3E_" xmlns="http://www.w3.org/2000/svg" xmlns:xlink="http://www.w3.org/1999/xlink" x="0px"
	 y="0px" width="221.4px" height="28.4px" viewBox="0 0 221.4 28.4" enable-background="new 0 0 221.4 28.4" xml:space="preserve">
<g>
	<g>
		<path d="M32.5,38c-0.1,0.4-0.3,0.8-0.6,1.2c-0.3,0.3-0.7,0.6-1.2,0.8c-0.5,0.2-1,0.3-1.6,0.3c-0.7,0-1.3-0.1-1.6-0.4
			c-0.3-0.2-0.5-0.4-0.6-0.8c-0.1-0.3-0.1-0.6-0.1-0.9c0-0.2,0.1-0.3,0.3-0.5c0.2-0.1,0.3-0.2,0.5-0.2c0.2,0,0.3,0,0.3,0.1
			c0.1,0.1,0.1,0.2,0.2,0.4c0,0.2,0.1,0.4,0.1,0.6c0.1,0.2,0.2,0.3,0.3,0.4c0.2,0.1,0.4,0.1,0.7,0.1c0.4,0,0.8-0.1,1.1-0.3
			c0.3-0.2,0.5-0.4,0.6-0.7c0.1-0.2,0-0.4-0.1-0.6c-0.1-0.1-0.3-0.3-0.5-0.3c-0.2-0.1-0.5-0.2-0.9-0.2c-0.5-0.1-0.9-0.3-1.2-0.4
			c-0.3-0.2-0.5-0.4-0.6-0.7c-0.1-0.3-0.1-0.6,0-1c0.1-0.4,0.3-0.7,0.6-1c0.3-0.3,0.7-0.5,1.1-0.7c0.5-0.2,0.9-0.2,1.5-0.2
			c0.4,0,0.8,0.1,1.1,0.2c0.3,0.1,0.5,0.3,0.7,0.4c0.2,0.2,0.3,0.4,0.3,0.6c0,0.2,0,0.4,0,0.6c0,0.2-0.1,0.3-0.3,0.5
			c-0.2,0.1-0.3,0.2-0.5,0.2c-0.2,0-0.3,0-0.3-0.1c-0.1-0.1-0.1-0.2-0.2-0.4c-0.1-0.3-0.2-0.5-0.3-0.6c-0.1-0.2-0.4-0.2-0.8-0.2
			c-0.4,0-0.7,0.1-1,0.2c-0.3,0.2-0.4,0.4-0.5,0.6c0,0.1,0,0.3,0,0.4c0.1,0.1,0.1,0.2,0.3,0.3c0.1,0.1,0.2,0.1,0.4,0.2
			c0.1,0,0.3,0.1,0.6,0.2c0.4,0.1,0.7,0.2,1,0.3c0.3,0.1,0.5,0.3,0.7,0.4s0.3,0.4,0.4,0.6C32.6,37.4,32.5,37.7,32.5,38z"/>
		<path d="M38.2,32.9c0.7,0,1.3,0.1,1.8,0.5c0.5,0.3,0.7,0.7,0.9,1.3c0.1,0.6,0.1,1.2-0.1,2c-0.1,0.6-0.4,1.1-0.6,1.5
			s-0.6,0.8-1,1.2s-0.8,0.6-1.3,0.8c-0.5,0.2-1,0.3-1.6,0.3c-0.6,0-1-0.1-1.4-0.3c-0.4-0.2-0.7-0.4-0.9-0.8
			c-0.2-0.3-0.3-0.7-0.4-1.2c0-0.5,0-1,0.2-1.5c0.1-0.5,0.4-1.1,0.6-1.5c0.3-0.5,0.6-0.8,1-1.2c0.4-0.3,0.8-0.6,1.3-0.7
			C37.1,33,37.7,32.9,38.2,32.9z M39.3,36.6c0.1-0.5,0.2-1,0.1-1.4c-0.1-0.4-0.2-0.7-0.5-0.9c-0.3-0.2-0.6-0.3-1-0.3
			c-0.3,0-0.6,0.1-0.8,0.2c-0.3,0.1-0.5,0.3-0.8,0.5c-0.2,0.2-0.4,0.5-0.6,0.8c-0.2,0.3-0.3,0.7-0.4,1.1c-0.1,0.4-0.2,0.8-0.1,1.1
			c0,0.3,0.1,0.6,0.2,0.8c0.1,0.2,0.3,0.4,0.5,0.5c0.2,0.1,0.5,0.2,0.8,0.2c0.4,0,0.7-0.1,1.1-0.3c0.4-0.2,0.7-0.5,1-0.9
			C38.9,37.6,39.1,37.2,39.3,36.6z"/>
		<path d="M46.9,34.2H44L43.6,36h2.4c0.2,0,0.4,0.1,0.5,0.2c0.1,0.1,0.1,0.2,0.1,0.4c0,0.2-0.1,0.3-0.3,0.4s-0.3,0.1-0.5,0.1h-2.4
			l-0.6,2.4c-0.1,0.3-0.2,0.5-0.4,0.7c-0.2,0.1-0.4,0.2-0.6,0.2c-0.2,0-0.4-0.1-0.5-0.2c-0.1-0.1-0.1-0.4,0-0.7l1.5-5.5
			c0.1-0.2,0.1-0.4,0.2-0.5c0.1-0.1,0.2-0.2,0.4-0.3c0.1-0.1,0.3-0.1,0.5-0.1h3.4c0.2,0,0.4,0.1,0.5,0.2c0.1,0.1,0.1,0.2,0.1,0.4
			c0,0.2-0.1,0.3-0.3,0.4C47.3,34.1,47.1,34.2,46.9,34.2z"/>
		<path d="M53.3,34.2h-1.6l-1.4,5.2c-0.1,0.3-0.2,0.5-0.4,0.7c-0.2,0.1-0.4,0.2-0.6,0.2c-0.2,0-0.4-0.1-0.5-0.2
			c-0.1-0.1-0.1-0.4,0-0.7l1.4-5.2h-1.6c-0.2,0-0.4-0.1-0.5-0.2c-0.1-0.1-0.1-0.3-0.1-0.4c0-0.2,0.2-0.3,0.3-0.4S48.8,33,49,33h4.6
			c0.3,0,0.4,0.1,0.5,0.2s0.1,0.3,0.1,0.4c0,0.2-0.1,0.3-0.3,0.4C53.7,34.2,53.5,34.2,53.3,34.2z"/>
		<path d="M58.6,39.1l0-4.3l-2.3,4.3c-0.2,0.3-0.3,0.6-0.4,0.7c-0.1,0.1-0.2,0.3-0.4,0.4c-0.2,0.1-0.4,0.2-0.6,0.2
			c-0.2,0-0.3,0-0.4-0.1c-0.1-0.1-0.2-0.2-0.2-0.3c0-0.1-0.1-0.3-0.1-0.4c0-0.2,0-0.3,0-0.5l0.1-4.8c0-0.3,0-0.5,0.1-0.6
			c0-0.2,0.2-0.3,0.3-0.5c0.2-0.1,0.3-0.2,0.5-0.2c0.3,0,0.4,0.1,0.5,0.3c0,0.2,0.1,0.4,0,0.7l-0.2,4.2l2.1-3.9
			c0.2-0.3,0.3-0.5,0.4-0.7c0.1-0.2,0.2-0.3,0.4-0.4c0.2-0.1,0.4-0.2,0.6-0.2c0.2,0,0.4,0.1,0.5,0.2c0.1,0.1,0.2,0.2,0.2,0.4
			c0,0.1,0,0.4,0,0.7l0,3.9l2.1-4.2c0.1-0.2,0.2-0.4,0.3-0.5c0.1-0.1,0.2-0.2,0.3-0.3c0.1-0.1,0.3-0.1,0.5-0.1
			c0.2,0,0.3,0.1,0.4,0.2c0.1,0.1,0.1,0.3,0.1,0.5c0,0.1-0.1,0.3-0.3,0.6L60.7,39c-0.2,0.3-0.3,0.6-0.4,0.7
			c-0.1,0.2-0.2,0.3-0.4,0.4c-0.2,0.1-0.4,0.2-0.6,0.2c-0.2,0-0.4-0.1-0.5-0.2c-0.1-0.1-0.2-0.2-0.2-0.4S58.6,39.4,58.6,39.1z"/>
		<path d="M67.4,39.4l-0.1-0.9h-2.9l-0.6,0.9c-0.2,0.4-0.4,0.6-0.5,0.7c-0.1,0.1-0.3,0.2-0.5,0.2c-0.2,0-0.3-0.1-0.4-0.2
			c-0.1-0.1-0.1-0.3-0.1-0.5c0-0.1,0.1-0.2,0.1-0.3c0.1-0.1,0.2-0.2,0.3-0.4l3.1-4.6c0.1-0.1,0.2-0.3,0.3-0.5
			c0.1-0.2,0.2-0.3,0.4-0.5c0.1-0.1,0.3-0.2,0.4-0.3c0.2-0.1,0.3-0.1,0.5-0.1c0.2,0,0.4,0,0.5,0.1c0.1,0.1,0.2,0.2,0.2,0.3
			c0.1,0.1,0.1,0.3,0.1,0.4c0,0.1,0,0.3,0.1,0.6l0.6,4.6c0.1,0.3,0.1,0.6,0,0.8c0,0.2-0.2,0.3-0.3,0.5c-0.2,0.1-0.4,0.2-0.6,0.2
			c-0.1,0-0.2,0-0.3-0.1c-0.1,0-0.1-0.1-0.2-0.2c0-0.1-0.1-0.2-0.1-0.3S67.4,39.5,67.4,39.4z M65.1,37.4h2.1l-0.3-2.9L65.1,37.4z"/>
		<path d="M72.6,37.1h-0.5l-0.6,2.3c-0.1,0.3-0.2,0.5-0.4,0.7c-0.2,0.1-0.4,0.2-0.6,0.2c-0.2,0-0.4-0.1-0.5-0.2
			c-0.1-0.1-0.1-0.4,0-0.7l1.5-5.5c0.1-0.3,0.2-0.5,0.4-0.7c0.2-0.1,0.4-0.2,0.7-0.2H75c0.3,0,0.6,0,0.8,0c0.2,0,0.4,0.1,0.6,0.2
			c0.2,0.1,0.4,0.2,0.5,0.4c0.1,0.2,0.2,0.4,0.2,0.6c0,0.2,0,0.5-0.1,0.7c-0.1,0.5-0.4,1-0.8,1.3c-0.4,0.3-0.9,0.5-1.5,0.7
			c0.2,0.1,0.4,0.3,0.6,0.6c0.2,0.3,0.3,0.6,0.4,0.9c0.1,0.3,0.2,0.6,0.2,0.8c0,0.2,0,0.4,0,0.5c0,0.1-0.1,0.2-0.2,0.3
			c-0.1,0.1-0.2,0.2-0.3,0.2c-0.1,0.1-0.2,0.1-0.4,0.1c-0.2,0-0.3,0-0.4-0.1c-0.1-0.1-0.2-0.2-0.2-0.3c0-0.1-0.1-0.3-0.2-0.5l-0.3-1
			c-0.1-0.4-0.2-0.6-0.3-0.8c-0.1-0.2-0.2-0.3-0.4-0.4C73,37.2,72.8,37.1,72.6,37.1z M74.2,34.1h-1.3l-0.5,2h1.3
			c0.3,0,0.6,0,0.9-0.1c0.3-0.1,0.5-0.2,0.6-0.3c0.2-0.1,0.3-0.3,0.3-0.6c0.1-0.2,0-0.4,0-0.5c-0.1-0.2-0.2-0.3-0.3-0.3
			C75,34.2,74.7,34.1,74.2,34.1z"/>
		<path d="M83.3,34.2h-3.3l-0.5,1.8h3c0.2,0,0.4,0,0.5,0.1c0.1,0.1,0.1,0.2,0.1,0.4s-0.1,0.3-0.3,0.4c-0.1,0.1-0.3,0.2-0.5,0.2h-3
			l-0.5,2h3.4c0.2,0,0.4,0.1,0.5,0.2s0.1,0.2,0.1,0.4c0,0.2-0.1,0.3-0.3,0.4c-0.1,0.1-0.3,0.2-0.6,0.2h-3.9c-0.3,0-0.5-0.1-0.6-0.2
			c-0.1-0.1-0.1-0.4,0-0.7l1.4-5.4c0.1-0.2,0.1-0.4,0.2-0.5c0.1-0.1,0.2-0.2,0.4-0.3c0.1-0.1,0.3-0.1,0.5-0.1h3.8
			c0.2,0,0.4,0.1,0.5,0.2c0.1,0.1,0.1,0.2,0.1,0.4c0,0.2-0.1,0.3-0.3,0.4C83.7,34.1,83.5,34.2,83.3,34.2z"/>
		<path d="M89,33h1.9c0.5,0,0.9,0,1.2,0.1c0.3,0.1,0.6,0.3,0.8,0.5c0.6,0.6,0.7,1.6,0.3,2.9c-0.1,0.4-0.3,0.8-0.4,1.2
			c-0.2,0.4-0.4,0.7-0.6,1c-0.2,0.3-0.5,0.5-0.8,0.8c-0.2,0.2-0.5,0.3-0.7,0.4c-0.3,0.1-0.5,0.2-0.8,0.2c-0.3,0-0.6,0.1-0.9,0.1
			h-1.9c-0.3,0-0.5,0-0.6-0.1c-0.1-0.1-0.2-0.2-0.2-0.3c0-0.1,0-0.3,0.1-0.6l1.4-5.2c0.1-0.3,0.2-0.5,0.4-0.7
			C88.4,33.1,88.6,33,89,33z M89.2,34.2L87.9,39H89c0.2,0,0.4,0,0.6,0c0.1,0,0.3,0,0.5-0.1s0.3-0.1,0.4-0.2c0.6-0.4,1-1.1,1.3-2.1
			c0.2-0.7,0.2-1.2,0.1-1.6c-0.1-0.3-0.3-0.6-0.6-0.7c-0.3-0.1-0.6-0.1-1.1-0.1H89.2z"/>
		<path d="M99.9,34.2h-3.3l-0.5,1.8h3c0.2,0,0.4,0,0.5,0.1c0.1,0.1,0.1,0.2,0.1,0.4s-0.1,0.3-0.3,0.4c-0.1,0.1-0.3,0.2-0.5,0.2h-3
			l-0.5,2h3.4c0.2,0,0.4,0.1,0.5,0.2c0.1,0.1,0.1,0.2,0.1,0.4c0,0.2-0.1,0.3-0.3,0.4c-0.1,0.1-0.3,0.2-0.6,0.2h-3.9
			c-0.3,0-0.5-0.1-0.6-0.2c-0.1-0.1-0.1-0.4,0-0.7l1.4-5.4c0.1-0.2,0.1-0.4,0.2-0.5c0.1-0.1,0.2-0.2,0.4-0.3
			c0.1-0.1,0.3-0.1,0.5-0.1h3.8c0.2,0,0.4,0.1,0.5,0.2c0.1,0.1,0.1,0.2,0.1,0.4c0,0.2-0.1,0.3-0.3,0.4
			C100.3,34.1,100.1,34.2,99.9,34.2z"/>
		<path d="M102.9,33.9l0.3,4.8l2.9-4.8c0.2-0.3,0.3-0.4,0.3-0.5c0.1-0.1,0.2-0.2,0.3-0.3c0.1-0.1,0.3-0.1,0.4-0.1
			c0.1,0,0.2,0,0.3,0.1s0.1,0.1,0.2,0.2c0,0.1,0,0.2,0,0.3c0,0.1,0,0.1-0.1,0.2c0,0.1-0.1,0.2-0.1,0.2c0,0.1-0.1,0.2-0.2,0.2l-3,4.7
			c-0.1,0.2-0.2,0.3-0.3,0.5c-0.1,0.2-0.2,0.3-0.3,0.4c-0.1,0.1-0.2,0.2-0.4,0.3s-0.3,0.1-0.5,0.1c-0.2,0-0.3,0-0.5-0.1
			c-0.1-0.1-0.2-0.2-0.2-0.3c0-0.1-0.1-0.3-0.1-0.4c0-0.2,0-0.3-0.1-0.5l-0.5-4.6c0-0.1,0-0.2,0-0.2c0-0.1,0-0.2,0-0.3
			c0-0.1,0-0.2,0-0.2c0-0.2,0.2-0.3,0.3-0.5c0.2-0.1,0.4-0.2,0.6-0.2c0.2,0,0.4,0.1,0.5,0.2C102.9,33.3,102.9,33.5,102.9,33.9z"/>
		<path d="M113.4,34.2h-3.3l-0.5,1.8h3c0.2,0,0.4,0,0.5,0.1c0.1,0.1,0.1,0.2,0.1,0.4s-0.1,0.3-0.3,0.4c-0.1,0.1-0.3,0.2-0.5,0.2h-3
			l-0.5,2h3.4c0.2,0,0.4,0.1,0.5,0.2s0.1,0.2,0.1,0.4c0,0.2-0.1,0.3-0.3,0.4c-0.1,0.1-0.3,0.2-0.6,0.2h-3.9c-0.3,0-0.5-0.1-0.6-0.2
			c-0.1-0.1-0.1-0.4,0-0.7l1.4-5.4c0.1-0.2,0.1-0.4,0.2-0.5c0.1-0.1,0.2-0.2,0.4-0.3c0.1-0.1,0.3-0.1,0.5-0.1h3.8
			c0.2,0,0.4,0.1,0.5,0.2c0.1,0.1,0.1,0.2,0.1,0.4c0,0.2-0.1,0.3-0.3,0.4C113.8,34.1,113.6,34.2,113.4,34.2z"/>
		<path d="M116.8,33.8l-1.4,5.2h2.9c0.2,0,0.4,0.1,0.5,0.2c0.1,0.1,0.1,0.3,0.1,0.4c0,0.2-0.1,0.3-0.3,0.4c-0.2,0.1-0.3,0.2-0.6,0.2
			h-3.5c-0.3,0-0.5-0.1-0.6-0.2c-0.1-0.1-0.1-0.4,0-0.7l1.5-5.5c0.1-0.3,0.2-0.5,0.4-0.7c0.2-0.1,0.4-0.2,0.6-0.2
			c0.2,0,0.4,0.1,0.5,0.2C116.9,33.3,116.9,33.5,116.8,33.8z"/>
		<path d="M124.3,32.9c0.7,0,1.3,0.1,1.8,0.5c0.5,0.3,0.7,0.7,0.9,1.3c0.1,0.6,0.1,1.2-0.1,2c-0.1,0.6-0.4,1.1-0.6,1.5
			c-0.3,0.5-0.6,0.8-1,1.2c-0.4,0.3-0.8,0.6-1.3,0.8c-0.5,0.2-1,0.3-1.6,0.3c-0.6,0-1-0.1-1.4-0.3c-0.4-0.2-0.7-0.4-0.9-0.8
			c-0.2-0.3-0.3-0.7-0.4-1.2c0-0.5,0-1,0.2-1.5c0.1-0.5,0.4-1.1,0.6-1.5c0.3-0.5,0.6-0.8,1-1.2c0.4-0.3,0.8-0.6,1.3-0.7
			C123.3,33,123.8,32.9,124.3,32.9z M125.4,36.6c0.1-0.5,0.2-1,0.1-1.4c-0.1-0.4-0.2-0.7-0.5-0.9c-0.3-0.2-0.6-0.3-1-0.3
			c-0.3,0-0.6,0.1-0.8,0.2c-0.3,0.1-0.5,0.3-0.8,0.5c-0.2,0.2-0.4,0.5-0.6,0.8c-0.2,0.3-0.3,0.7-0.4,1.1c-0.1,0.4-0.2,0.8-0.1,1.1
			c0,0.3,0.1,0.6,0.2,0.8c0.1,0.2,0.3,0.4,0.5,0.5c0.2,0.1,0.5,0.2,0.8,0.2c0.4,0,0.7-0.1,1.1-0.3c0.4-0.2,0.7-0.5,1-0.9
			C125,37.6,125.3,37.2,125.4,36.6z"/>
		<path d="M130.7,37.4h-1.3l-0.5,2c-0.1,0.3-0.2,0.5-0.4,0.7c-0.2,0.1-0.4,0.2-0.6,0.2c-0.2,0-0.4-0.1-0.5-0.2
			c-0.1-0.1-0.1-0.4,0-0.6l1.5-5.5c0.1-0.3,0.2-0.5,0.4-0.7c0.2-0.1,0.4-0.2,0.8-0.2h1.9c0.5,0,1,0,1.2,0.1c0.3,0.1,0.5,0.2,0.6,0.4
			c0.2,0.2,0.3,0.4,0.3,0.7c0,0.3,0,0.6-0.1,0.9c-0.2,0.7-0.6,1.3-1.1,1.7C132.3,37.2,131.6,37.4,130.7,37.4z M131.2,34.1h-1
			l-0.6,2.2h1c0.3,0,0.6,0,0.9-0.1c0.2-0.1,0.5-0.2,0.6-0.4c0.2-0.2,0.3-0.4,0.4-0.6c0.1-0.3,0.1-0.6-0.1-0.8
			C132.2,34.2,131.8,34.1,131.2,34.1z"/>
		<path d="M136.5,39.1l0.1-4.6l-1.3,4.9c-0.1,0.3-0.2,0.5-0.3,0.6c-0.2,0.1-0.3,0.2-0.5,0.2c-0.2,0-0.3-0.1-0.4-0.2
			c-0.1-0.1-0.1-0.3,0-0.6l1.5-5.7c0.1-0.3,0.2-0.5,0.4-0.6c0.2-0.1,0.4-0.2,0.7-0.2h0.4c0.3,0,0.5,0,0.6,0.1c0.1,0,0.2,0.1,0.2,0.3
			c0,0.1,0,0.3,0,0.6l0,3.9l2.1-3.9c0.2-0.3,0.3-0.5,0.4-0.6c0.1-0.1,0.2-0.2,0.3-0.3c0.1,0,0.3-0.1,0.6-0.1h0.4
			c0.3,0,0.5,0.1,0.6,0.2c0.1,0.1,0.2,0.3,0.1,0.6l-1.5,5.7c-0.1,0.3-0.2,0.5-0.3,0.6c-0.2,0.1-0.3,0.2-0.5,0.2
			c-0.2,0-0.3-0.1-0.4-0.2c-0.1-0.1-0.1-0.3,0-0.6l1.3-4.9l-2.4,4.6c-0.2,0.3-0.3,0.5-0.4,0.7c-0.1,0.1-0.2,0.3-0.4,0.4
			c-0.2,0.1-0.3,0.2-0.6,0.2c-0.2,0-0.3,0-0.4-0.1c-0.1-0.1-0.2-0.2-0.2-0.3c0-0.1-0.1-0.2-0.1-0.4S136.5,39.3,136.5,39.1z"/>
		<path d="M148.4,34.2h-3.3l-0.5,1.8h3c0.2,0,0.4,0,0.5,0.1c0.1,0.1,0.1,0.2,0.1,0.4c0,0.2-0.1,0.3-0.3,0.4
			c-0.1,0.1-0.3,0.2-0.5,0.2h-3l-0.5,2h3.4c0.2,0,0.4,0.1,0.5,0.2c0.1,0.1,0.1,0.2,0.1,0.4c0,0.2-0.1,0.3-0.3,0.4
			c-0.1,0.1-0.3,0.2-0.6,0.2H143c-0.3,0-0.5-0.1-0.6-0.2c-0.1-0.1-0.1-0.4,0-0.7l1.4-5.4c0.1-0.2,0.1-0.4,0.2-0.5
			c0.1-0.1,0.2-0.2,0.4-0.3c0.1-0.1,0.3-0.1,0.5-0.1h3.8c0.2,0,0.4,0.1,0.5,0.2c0.1,0.1,0.1,0.2,0.1,0.4c0,0.2-0.1,0.3-0.3,0.4
			C148.9,34.1,148.7,34.2,148.4,34.2z"/>
		<path d="M152.4,33.8L154,38l1.1-4.2c0.1-0.3,0.2-0.5,0.3-0.6c0.2-0.1,0.3-0.2,0.5-0.2c0.2,0,0.4,0.1,0.4,0.2
			c0.1,0.1,0.1,0.3,0,0.6l-1.5,5.6c-0.2,0.6-0.5,0.9-1,0.9c-0.1,0-0.2,0-0.3-0.1s-0.2-0.1-0.2-0.2c-0.1-0.1-0.1-0.2-0.2-0.3
			s-0.1-0.2-0.1-0.3l-1.6-4.2l-1.1,4.2c-0.1,0.3-0.2,0.5-0.4,0.6c-0.2,0.1-0.3,0.2-0.5,0.2c-0.2,0-0.3-0.1-0.4-0.2s-0.1-0.3,0-0.6
			l1.5-5.5c0.1-0.2,0.1-0.4,0.2-0.5c0.1-0.1,0.2-0.3,0.4-0.4c0.2-0.1,0.3-0.1,0.5-0.1c0.1,0,0.2,0,0.3,0.1c0.1,0,0.1,0.1,0.2,0.2
			c0.1,0.1,0.1,0.2,0.1,0.3C152.3,33.5,152.3,33.7,152.4,33.8z"/>
		<path d="M162.6,34.2H161l-1.4,5.2c-0.1,0.3-0.2,0.5-0.4,0.7c-0.2,0.1-0.4,0.2-0.6,0.2c-0.2,0-0.4-0.1-0.5-0.2
			c-0.1-0.1-0.1-0.4,0-0.7l1.4-5.2H158c-0.2,0-0.4-0.1-0.5-0.2c-0.1-0.1-0.1-0.3-0.1-0.4c0-0.2,0.2-0.3,0.3-0.4
			c0.2-0.1,0.3-0.2,0.6-0.2h4.6c0.3,0,0.4,0.1,0.5,0.2c0.1,0.1,0.1,0.3,0.1,0.4c0,0.2-0.1,0.3-0.3,0.4
			C163,34.2,162.8,34.2,162.6,34.2z"/>
		<path d="M171.8,37.9c-0.1,0.2-0.2,0.5-0.4,0.7c-0.2,0.3-0.4,0.5-0.7,0.8c-0.3,0.3-0.7,0.5-1.1,0.6c-0.4,0.2-0.9,0.2-1.4,0.2
			c-0.4,0-0.7,0-1-0.1c-0.3-0.1-0.5-0.2-0.8-0.3c-0.2-0.2-0.4-0.3-0.5-0.6c-0.1-0.2-0.2-0.5-0.3-0.8c-0.1-0.3-0.1-0.6-0.1-0.9
			c0-0.3,0.1-0.6,0.2-1c0.2-0.6,0.4-1.1,0.7-1.5c0.3-0.5,0.6-0.8,1-1.2c0.4-0.3,0.8-0.6,1.3-0.7c0.5-0.2,0.9-0.3,1.4-0.3
			c0.6,0,1.1,0.1,1.5,0.3c0.4,0.2,0.7,0.5,0.8,0.9c0.1,0.3,0.2,0.7,0.1,1c0,0.2-0.1,0.3-0.3,0.4c-0.2,0.1-0.3,0.2-0.5,0.2
			c-0.2,0-0.3,0-0.4-0.1s-0.1-0.2-0.2-0.5c-0.1-0.4-0.2-0.6-0.5-0.8c-0.2-0.2-0.5-0.3-0.9-0.3c-0.6,0-1.1,0.2-1.6,0.7
			c-0.5,0.5-0.8,1.1-1,1.9c-0.1,0.6-0.2,1-0.1,1.4c0.1,0.4,0.2,0.6,0.4,0.8c0.2,0.2,0.5,0.3,0.9,0.3c0.4,0,0.8-0.1,1.1-0.3
			c0.3-0.2,0.6-0.5,0.9-0.9c0.1-0.2,0.2-0.3,0.4-0.5s0.3-0.2,0.5-0.2c0.2,0,0.3,0.1,0.4,0.2C171.8,37.6,171.8,37.7,171.8,37.9z"/>
		<path d="M177.6,32.9c0.7,0,1.3,0.1,1.8,0.5c0.5,0.3,0.7,0.7,0.9,1.3c0.1,0.6,0.1,1.2-0.1,2c-0.1,0.6-0.4,1.1-0.6,1.5
			s-0.6,0.8-1,1.2c-0.4,0.3-0.8,0.6-1.3,0.8c-0.5,0.2-1,0.3-1.6,0.3c-0.6,0-1-0.1-1.4-0.3c-0.4-0.2-0.7-0.4-0.9-0.8
			c-0.2-0.3-0.3-0.7-0.4-1.2c0-0.5,0-1,0.2-1.5c0.1-0.5,0.4-1.1,0.6-1.5s0.6-0.8,1-1.2c0.4-0.3,0.8-0.6,1.3-0.7
			C176.5,33,177,32.9,177.6,32.9z M178.6,36.6c0.1-0.5,0.2-1,0.1-1.4c-0.1-0.4-0.2-0.7-0.5-0.9c-0.3-0.2-0.6-0.3-1-0.3
			c-0.3,0-0.6,0.1-0.8,0.2c-0.3,0.1-0.5,0.3-0.8,0.5c-0.2,0.2-0.4,0.5-0.6,0.8c-0.2,0.3-0.3,0.7-0.4,1.1c-0.1,0.4-0.2,0.8-0.1,1.1
			c0,0.3,0.1,0.6,0.2,0.8c0.1,0.2,0.3,0.4,0.5,0.5c0.2,0.1,0.5,0.2,0.8,0.2c0.4,0,0.7-0.1,1.1-0.3c0.4-0.2,0.7-0.5,1-0.9
			C178.3,37.6,178.5,37.2,178.6,36.6z"/>
		<path d="M183.1,39.1l0.1-4.6l-1.3,4.9c-0.1,0.3-0.2,0.5-0.3,0.6c-0.2,0.1-0.3,0.2-0.5,0.2c-0.2,0-0.3-0.1-0.4-0.2
			c-0.1-0.1-0.1-0.3,0-0.6l1.5-5.7c0.1-0.3,0.2-0.5,0.4-0.6c0.2-0.1,0.4-0.2,0.7-0.2h0.4c0.3,0,0.5,0,0.6,0.1c0.1,0,0.2,0.1,0.2,0.3
			c0,0.1,0,0.3,0,0.6l0,3.9l2.1-3.9c0.2-0.3,0.3-0.5,0.4-0.6c0.1-0.1,0.2-0.2,0.3-0.3c0.1,0,0.3-0.1,0.6-0.1h0.4
			c0.3,0,0.5,0.1,0.6,0.2c0.1,0.1,0.2,0.3,0.1,0.6l-1.5,5.7c-0.1,0.3-0.2,0.5-0.3,0.6c-0.2,0.1-0.3,0.2-0.5,0.2
			c-0.2,0-0.3-0.1-0.4-0.2c-0.1-0.1-0.1-0.3,0-0.6l1.3-4.9l-2.4,4.6c-0.2,0.3-0.3,0.5-0.4,0.7c-0.1,0.1-0.2,0.3-0.4,0.4
			c-0.2,0.1-0.3,0.2-0.6,0.2c-0.2,0-0.3,0-0.4-0.1c-0.1-0.1-0.2-0.2-0.2-0.3c0-0.1-0.1-0.2-0.1-0.4
			C183.1,39.4,183.1,39.3,183.1,39.1z"/>
		<path d="M192.2,37.4h-1.3l-0.5,2c-0.1,0.3-0.2,0.5-0.4,0.7c-0.2,0.1-0.4,0.2-0.6,0.2c-0.2,0-0.4-0.1-0.5-0.2
			c-0.1-0.1-0.1-0.4,0-0.6l1.5-5.5c0.1-0.3,0.2-0.5,0.4-0.7c0.2-0.1,0.4-0.2,0.8-0.2h1.9c0.5,0,1,0,1.2,0.1c0.3,0.1,0.5,0.2,0.6,0.4
			c0.2,0.2,0.3,0.4,0.3,0.7c0,0.3,0,0.6-0.1,0.9c-0.2,0.7-0.6,1.3-1.1,1.7C193.8,37.2,193.1,37.4,192.2,37.4z M192.7,34.1h-1
			l-0.6,2.2h1c0.3,0,0.6,0,0.9-0.1c0.2-0.1,0.5-0.2,0.6-0.4c0.2-0.2,0.3-0.4,0.4-0.6c0.1-0.3,0.1-0.6-0.1-0.8
			C193.8,34.2,193.4,34.1,192.7,34.1z"/>
		<path d="M199.3,39.4l-0.1-0.9h-2.9l-0.6,0.9c-0.2,0.4-0.4,0.6-0.5,0.7c-0.1,0.1-0.3,0.2-0.5,0.2c-0.2,0-0.3-0.1-0.4-0.2
			c-0.1-0.1-0.1-0.3-0.1-0.5c0-0.1,0.1-0.2,0.1-0.3c0.1-0.1,0.2-0.2,0.3-0.4l3.1-4.6c0.1-0.1,0.2-0.3,0.3-0.5
			c0.1-0.2,0.2-0.3,0.4-0.5c0.1-0.1,0.3-0.2,0.4-0.3c0.2-0.1,0.3-0.1,0.5-0.1c0.2,0,0.4,0,0.5,0.1c0.1,0.1,0.2,0.2,0.2,0.3
			c0.1,0.1,0.1,0.3,0.1,0.4c0,0.1,0,0.3,0.1,0.6l0.6,4.6c0.1,0.3,0.1,0.6,0,0.8c0,0.2-0.2,0.3-0.3,0.5c-0.2,0.1-0.4,0.2-0.6,0.2
			c-0.1,0-0.2,0-0.3-0.1c-0.1,0-0.1-0.1-0.2-0.2s-0.1-0.2-0.1-0.3C199.3,39.6,199.3,39.5,199.3,39.4z M196.9,37.4h2.1l-0.3-2.9
			L196.9,37.4z"/>
		<path d="M205.3,33.8l1.7,4.2l1.1-4.2c0.1-0.3,0.2-0.5,0.3-0.6c0.2-0.1,0.3-0.2,0.5-0.2c0.2,0,0.4,0.1,0.4,0.2
			c0.1,0.1,0.1,0.3,0,0.6l-1.5,5.6c-0.2,0.6-0.5,0.9-1,0.9c-0.1,0-0.2,0-0.3-0.1s-0.2-0.1-0.2-0.2c-0.1-0.1-0.1-0.2-0.2-0.3
			s-0.1-0.2-0.1-0.3l-1.6-4.2l-1.1,4.2c-0.1,0.3-0.2,0.5-0.4,0.6c-0.2,0.1-0.3,0.2-0.5,0.2c-0.2,0-0.4-0.1-0.4-0.2
			c-0.1-0.1-0.1-0.3,0-0.6l1.5-5.5c0.1-0.2,0.1-0.4,0.2-0.5c0.1-0.1,0.2-0.3,0.4-0.4c0.2-0.1,0.3-0.1,0.5-0.1c0.1,0,0.2,0,0.3,0.1
			c0.1,0,0.1,0.1,0.2,0.2c0,0.1,0.1,0.2,0.1,0.3C205.2,33.5,205.2,33.7,205.3,33.8z"/>
		<path d="M211,39.4l0.6-2.3l-1-2.7c-0.1-0.2-0.1-0.4-0.2-0.6c0-0.1,0-0.3,0-0.4c0-0.2,0.1-0.3,0.3-0.4c0.2-0.1,0.3-0.2,0.5-0.2
			c0.2,0,0.3,0.1,0.4,0.2s0.2,0.3,0.3,0.7l0.8,2.2l1.9-2.2c0.1-0.1,0.2-0.2,0.3-0.3c0.1-0.1,0.2-0.2,0.3-0.3
			c0.1-0.1,0.2-0.1,0.3-0.2c0.1,0,0.2-0.1,0.3-0.1c0.2,0,0.3,0.1,0.4,0.2c0.1,0.1,0.1,0.3,0.1,0.4c0,0.1-0.1,0.3-0.2,0.4
			c-0.1,0.1-0.2,0.3-0.5,0.5l-2.5,2.7l-0.6,2.3c-0.1,0.3-0.2,0.5-0.4,0.7c-0.2,0.1-0.4,0.2-0.6,0.2c-0.2,0-0.4-0.1-0.5-0.2
			C211,39.9,211,39.7,211,39.4z"/>
	</g>
	<g>
		<g>
			<path fill="#6AA750" d="M27.2,7.3H26c-1.2,0-2.4,0.9-2.7,2.1l-0.1,0.4l-0.7,2.5h2.2h1.2c1.2,0,2.4-0.9,2.7-2.1l0.1-0.4l0.1-0.4
				l0.6-2.1H27.2z"/>
			<path fill="#6AA750" d="M23.2,22.4H22c-1.2,0-2.4,0.9-2.7,2.1l-0.1,0.4l-0.7,2.5h2.2h1.2c1.2,0,2.4-0.9,2.7-2.1l0.1-0.4l0.1-0.4
				l0.6-2.1H23.2z"/>
			<path fill="#6AA750" d="M25.2,14.8H24c-1.2,0-2.4,0.9-2.7,2.1l-0.1,0.4l-0.7,2.5h2.2h1.2c1.2,0,2.4-0.9,2.7-2.1l0.1-0.4l0.1-0.4
				l0.6-2.1H25.2z"/>
		</g>
		<g>
			<path fill="#6AA750" d="M18,7.3h-1.2c-1.2,0-2.4,0.9-2.7,2.1l-0.1,0.4l-0.7,2.5h2.2h1.2c1.2,0,2.4-0.9,2.7-2.1l0.1-0.4l0.1-0.4
				l0.6-2.1H18z"/>
			<path fill="#6AA750" d="M13.9,22.4h-1.2c-1.2,0-2.4,0.9-2.7,2.1l-0.1,0.4l-0.7,2.5h2.2h1.2c1.2,0,2.4-0.9,2.7-2.1l0.1-0.4
				l0.1-0.4l0.6-2.1H13.9z"/>
			<path fill="#6AA750" d="M16,14.8h-1.2c-1.2,0-2.4,0.9-2.7,2.1l-0.1,0.4l-0.7,2.5h2.2h1.2c1.2,0,2.4-0.9,2.7-2.1l0.1-0.4l0.1-0.4
				l0.6-2.1H16z"/>
		</g>
		<g>
			<path fill="#6AA750" d="M8.8,7.3H7.5c-1.2,0-2.4,0.9-2.7,2.1L4.7,9.8L4,12.3h2.2h1.2c1.2,0,2.4-0.9,2.7-2.1l0.1-0.4l0.1-0.4
				l0.6-2.1H8.8z"/>
			<path fill="#6AA750" d="M4.7,22.4H3.5c-1.2,0-2.4,0.9-2.7,2.1l-0.1,0.4L0,27.4h2.2h1.2c1.2,0,2.4-0.9,2.7-2.1l0.1-0.4l0.1-0.4
				l0.6-2.1H4.7z"/>
			<path fill="#6AA750" d="M6.7,14.8H5.5c-1.2,0-2.4,0.9-2.7,2.1l-0.1,0.4L2,19.8h2.2h1.2c1.2,0,2.4-0.9,2.7-2.1l0.1-0.4l0.1-0.4
				l0.6-2.1H6.7z"/>
		</g>
	</g>
	<g>
		<path fill="#6AA750" d="M177.2,0H176c-1.2,0-2.4,0.9-2.7,2.1l-0.1,0.4L172.5,5h2.2h1.2c1.2,0,2.4-0.9,2.7-2.1l0.1-0.4l0.7-2.5
			H177.2z"/>
		<path fill="#6AA750" d="M151.9,0h-1.2c-1.2,0-2.4,0.9-2.7,2.1l-0.1,0.4L147.2,5h2.2h1.2c1.2,0,2.4-0.9,2.7-2.1l0.1-0.4l0.7-2.5
			H151.9z"/>
		<path fill="#6AA750" d="M40.2,0h-1.2c-1.2,0-2.4,0.9-2.7,2.1v0l-0.1,0.4L35.4,5h2.2h1.2c1.2,0,2.4-0.9,2.7-2.1l0.1-0.4l0.1-0.4
			L42.3,0H40.2z"/>
		<g>
			<path d="M220.6,9c-1-1.1-3-1.7-6-1.7h-7.8h-2.2L204,9.4l-2.1,7.9l-2.7,10h2.2h0.9c1.2,0,2.4-0.9,2.7-2.1l1.5-5.7l1.5-5.7l0.6-2.1
				h2.2h2.1c1.4,0,2.3,0.2,2.6,0.7c0.2,0.2,0.3,0.6,0.2,1.1s-0.1,1.1-0.3,1.8l-3.2,12.1h2.2h1c1.2,0,2.4-0.9,2.7-2.1l2.9-10.6
				C221.7,12,221.5,10.1,220.6,9z"/>
			<path d="M198.1,9.4c-1.2-1.6-3.2-2.6-5.8-2.8c-0.4,0-0.8,0-1.2,0c-0.4,0-0.8,0-1.2,0c-2.7,0.2-5.2,1.2-7.3,2.8
				c-2.1,1.6-3.7,3.8-4.6,6.4c-0.1,0.4-0.3,0.8-0.4,1.2c-0.2,0.8-0.3,1.5-0.4,2.2c0,0.4,0,0.7,0,1c0,1.7,0.5,3.1,1.4,4.2
				c1.1,1.4,2.6,2.3,4.7,2.7c0.7,0.1,1.4,0.2,2.3,0.2c3.3,0,6.1-0.9,8.5-2.8c2.4-1.9,4-4.4,4.9-7.5c0.1-0.4,0.2-0.8,0.3-1.2
				c0.1-0.8,0.2-1.5,0.2-2.1C199.4,12,199,10.6,198.1,9.4z M193.4,17c-0.5,1.9-1.4,3.4-2.6,4.5c-1,0.9-2.2,1.5-3.6,1.6
				c-0.2,0-0.4,0-0.6,0c-0.2,0-0.4,0-0.6,0c-1.3-0.1-2.2-0.7-2.7-1.6c-0.6-1.1-0.6-2.6-0.1-4.5c0.1-0.2,0.1-0.5,0.2-0.7
				c0.5-1.6,1.3-2.8,2.3-3.8c1.2-1.1,2.6-1.6,4.2-1.6c1.6,0,2.7,0.5,3.3,1.6c0.3,0.5,0.5,1.2,0.5,1.9C193.8,15.2,193.6,16,193.4,17z
				"/>
			<path d="M174,7.3c-1.2,0-2.4,0.9-2.7,2.1l-2.1,7.9l-2.7,10h2.2h1.2c1.2,0,2.4-0.9,2.7-2.1l2.1-7.9l2.7-10h-2.2H174z"/>
			<path d="M166.8,7.3h-1.2h-2.2l1-3.6l1-3.6h-2.2h-1c-1.2,0-2.4,0.9-2.7,2.1c0,0,0,0,0,0l-0.4,1.5l-0.4,1.5l-0.6,2.1h-1.8
				c-1,0-2.1,0.9-2.4,2l-0.5,2h1.8h1.8l-0.6,2.1l-2.1,7.7c-0.5,2-0.4,3.6,0.3,4.7c0.8,1.1,2.1,1.6,4.1,1.6h2.6h2.2l0.5-2l0.5-2h-2.1
				c-1.3,0-2.1-0.3-2.4-0.9c-0.4-0.6-0.3-1.6,0.1-3.1l2.2-8.1h2.2h1.2c1.2,0,2.4-0.9,2.7-2l0.5-2H166.8z"/>
			<path d="M148.8,7.3c-1.2,0-2.4,0.9-2.7,2.1l-2.1,7.9l-2.7,10h2.2h1.2c1.2,0,2.4-0.9,2.7-2.1l2.1-7.9l2.7-10H150H148.8z"/>
			<path d="M139.9,7.3h-9.2c-0.6,0-1.2,0-1.7,0.1c-1.6,0.2-3,0.7-4.1,1.4c-0.8,0.6-1.5,1.3-2,2.3c-0.2,0.3-0.3,0.6-0.5,1
				c-0.2,0.5-0.4,1-0.5,1.5c-0.6,2.1-0.5,3.6,0.3,4.5c0.7,0.8,2.4,1.3,5.2,1.3h4.6c1,0,1.6,0.2,2,0.5c0.3,0.2,0.4,0.6,0.4,1
				c0,0.1,0,0.3-0.1,0.5c-0.2,0.7-0.5,1.2-1.1,1.5c-0.5,0.3-1.3,0.5-2.3,0.5h-9c-1.2,0-2.4,0.9-2.7,2.1l-0.6,2.1h2.2h11.5
				c1.6,0,3.1-0.6,4.4-1.8c1.3-1.1,2.3-2.7,2.8-4.5c0.2-0.7,0.3-1.4,0.3-2c0-1-0.3-1.8-0.9-2.4c-0.9-1-2.4-1.6-4.6-1.6h-4.8
				c-0.9,0-1.5-0.1-1.8-0.4c-0.3-0.3-0.4-0.7-0.2-1.4c0.2-0.7,0.5-1.1,1-1.4c0.5-0.3,1.5-0.4,3.1-0.4h7.2c1.2,0,2.4-0.9,2.7-2.1l0,0
				l0,0v0l0.6-2.1H139.9z"/>
			<path d="M117.6,9c-1-1.1-3-1.7-6-1.7h-7.8h-2.2l-2.7,10l-2.1,7.9v0l-0.6,2.1h2.2h1c1.2,0,2.4-0.9,2.7-2.1l1.5-5.7l1.5-5.7
				l0.6-2.1h2.2h2.1c1.4,0,2.3,0.2,2.6,0.7c0.2,0.2,0.2,0.6,0.2,1.1c0,0.5-0.1,1.1-0.3,1.8l-3.2,12.1h2.2h1c1.2,0,2.4-0.9,2.7-2.1
				l2.9-10.6C118.7,12,118.6,10.1,117.6,9z"/>
			<path d="M55.2,7.3h-1.3h-2.2l0.6-2.1l0.4-1.5l0.4-1.5v0L53.7,0h-2.2h-0.9c-1.2,0-2.4,0.9-2.7,2.1l-0.4,1.5L47,5.2v0l-0.6,2.1
				h-1.9c-1,0-2.1,0.9-2.4,2l-0.5,2h1.9h1.9l-2.6,9.8c-0.5,2-0.5,3.6,0.3,4.7c0.7,1.1,2.1,1.6,4.1,1.6h2.7H52l0.5-2l0.5-2h-2.2h0
				c-1.3,0-2.1-0.3-2.4-0.9c-0.4-0.6-0.3-1.6,0.1-3.1l1.6-6l0.6-2.1h2.2h1.3c1.2,0,2.4-0.9,2.7-2l0.5-2H55.2z"/>
			<path d="M38.2,7.3H37c-1.2,0-2.4,0.9-2.7,2.1l-2.1,7.9l-2.7,10h2.2h1.2c1.2,0,2.4-0.9,2.7-2.1l2.1-7.9l2.1-7.9v0l0.6-2.1H38.2z"
				/>
			<path d="M72.5,7.3h-4c-2.8,0-5,0.6-6.7,1.9c-1.7,1.2-2.9,3.1-3.6,5.6l-3.4,12.6H57h1.1c1.2,0,2.4-0.9,2.7-2.1l2.3-8.5
				c0,0,0,0,0,0l0.6-2.1c0.2-0.6,0.4-1.1,0.7-1.5c0.1-0.2,0.1-0.3,0.2-0.5c0,0,0,0,0.8-0.5c0.8-0.5,2.1-0.7,3.9-0.7h2h2.2l0.6-2.1
				l0.6-2.1H72.5z"/>
			<path d="M94.7,9.2c-1.1-1.3-2.9-1.9-5.7-1.9H78.2L77,11.4h8.9c1.8,0,3,0.2,3.6,0.7c0.6,0.5,0.7,1.3,0.4,2.5l-0.1,0.5h-7
				c-2.9,0-5,0.5-6.5,1.5c-1.5,1-2.5,2.7-3.2,4.9c-0.5,1.8-0.4,3.3,0.5,4.3c0.8,1,2.2,1.5,4.2,1.5h14.2l3.4-12.6
				C96,12.3,95.8,10.4,94.7,9.2z M87.6,23.3h-6.6c-1.2,0-1.9-0.2-2.2-0.4c-0.3-0.3-0.3-0.8-0.1-1.5c0.2-0.8,0.6-1.4,1.2-1.7
				c0.6-0.4,1.5-0.5,2.7-0.5h6.3L87.6,23.3z"/>
		</g>
	</g>
</g>
</svg>
